<svg width="129" height="54" viewBox="0 0 129 54" fill="none" xmlns="http://www.w3.org/2000/svg">
<path d="M52.2 1.09H1.08V52.18H52.2V1.09ZM91.83 42.62C93.59 42.62 94.86 41.76 94.86 40.11C94.86 38.38 93.41 38.01 92.29 37.72C91.58 37.54 91 37.4 91 36.97C91 36.62 91.36 36.46 91.74 36.46C92.17 36.46 92.53 36.68 92.53 37.16H94.61C94.61 35.62 93.58 34.68 91.76 34.68C89.97 34.68 88.88 35.54 88.88 37.03C88.88 38.76 90.27 39.09 91.37 39.36C92.09 39.54 92.68 39.67 92.68 40.15C92.68 40.56 92.26 40.8 91.83 40.8C91.35 40.8 90.94 40.53 90.94 39.99H88.79C88.79 41.64 89.99 42.62 91.83 42.62ZM85.62 40.52V34.85H83.51V42.44H88.31V40.52H85.62ZM79.88 40.52V34.85H77.77V42.44H82.57V40.52H79.88ZM74.19 42.44H76.3V34.85H74.19V42.44ZM73.6 42.44L70.95 38.53L73.38 34.85H70.96L68.96 38.05V34.85H66.87V42.44H68.96V39.09L71.13 42.44H73.6ZM62.75 42.62C64.51 42.62 65.78 41.76 65.78 40.11C65.78 38.38 64.32 38.01 63.21 37.72C62.49 37.54 61.92 37.4 61.92 36.97C61.92 36.62 62.28 36.46 62.65 36.46C63.09 36.46 63.44 36.68 63.44 37.16H65.53C65.53 35.62 64.49 34.68 62.68 34.68C60.89 34.68 59.79 35.54 59.79 37.03C59.79 38.76 61.19 39.09 62.28 39.36C63.01 39.54 63.6 39.67 63.6 40.15C63.6 40.56 63.18 40.8 62.75 40.8C62.27 40.8 61.86 40.53 61.86 39.99H59.7C59.7 41.64 60.9 42.62 62.75 42.62ZM125.46 24.51C124.27 24.51 123.41 25.34 123.41 26.49C123.41 27.22 123.77 27.81 124.38 28.12L123.12 30.36H125.24L126.18 28.48H126.82V30.36H128.68V24.51H125.46ZM126 27.12C125.59 27.12 125.36 26.88 125.36 26.52C125.36 26.16 125.59 25.92 126 25.92H126.82V27.12H126ZM120.83 24.51L120.62 24.96C120.14 24.56 119.53 24.33 118.84 24.33C117.05 24.33 115.78 25.62 115.78 27.43C115.78 29.25 117.05 30.56 118.84 30.56C119.52 30.56 120.12 30.33 120.6 29.94L120.77 30.36H122.33V24.51H120.83ZM119.11 28.77C118.35 28.77 117.8 28.2 117.8 27.44C117.8 26.68 118.35 26.11 119.11 26.11C119.86 26.11 120.42 26.68 120.42 27.44C120.42 28.2 119.86 28.77 119.11 28.77ZM115.86 30.36L113.86 27.31L115.68 24.51H113.43L112.03 26.81V24.51H110.02V30.36H112.03V27.89L113.5 30.36H115.86ZM106.03 30.56C107.67 30.56 108.92 29.49 109.15 27.9H107.17C107 28.42 106.57 28.75 106.03 28.75C105.33 28.75 104.82 28.2 104.82 27.44C104.82 26.67 105.32 26.13 106.03 26.13C106.55 26.13 107 26.44 107.17 26.92H109.13C108.91 25.37 107.67 24.33 106.04 24.33C104.15 24.33 102.8 25.62 102.8 27.43C102.8 29.24 104.16 30.56 106.03 30.56ZM99.16 24.32C98.46 24.32 97.84 24.56 97.36 24.98L97.11 24.51H95.74V32.48H97.73V30.17C98.14 30.42 98.63 30.56 99.16 30.56C100.94 30.56 102.22 29.26 102.22 27.44C102.22 25.61 100.94 24.32 99.16 24.32ZM98.89 28.78C98.13 28.78 97.58 28.21 97.58 27.44C97.58 26.67 98.13 26.1 98.89 26.1C99.64 26.1 100.2 26.67 100.2 27.44C100.2 28.21 99.64 28.78 98.89 28.78ZM94.83 27.38C94.83 25.67 93.53 24.32 91.64 24.32C89.81 24.32 88.47 25.64 88.47 27.43C88.47 29.22 89.82 30.56 91.64 30.56C93.11 30.56 94.29 29.72 94.7 28.39H92.7C92.51 28.73 92.12 28.94 91.64 28.94C91.01 28.94 90.59 28.59 90.45 27.92H94.79C94.81 27.74 94.83 27.56 94.83 27.38ZM91.64 25.9C92.25 25.9 92.67 26.22 92.85 26.8H90.49C90.65 26.22 91.06 25.9 91.64 25.9ZM88.12 24.51H82.47V26.26H84.31V30.36H86.29V26.26H88.12V24.51ZM79.04 30.56C80.69 30.56 81.93 29.49 82.16 27.9H80.18C80.02 28.42 79.58 28.75 79.04 28.75C78.34 28.75 77.83 28.2 77.83 27.44C77.83 26.67 78.34 26.13 79.04 26.13C79.57 26.13 80.01 26.44 80.18 26.92H82.14C81.92 25.37 80.69 24.33 79.05 24.33C77.16 24.33 75.82 25.62 75.82 27.43C75.82 29.24 77.17 30.56 79.04 30.56ZM73.39 24.51L73.18 24.96C72.7 24.56 72.09 24.33 71.4 24.33C69.61 24.33 68.34 25.62 68.34 27.43C68.34 29.25 69.61 30.56 71.4 30.56C72.08 30.56 72.68 30.33 73.16 29.94L73.33 30.36H74.89V24.51H73.39ZM71.67 28.77C70.91 28.77 70.36 28.2 70.36 27.44C70.36 26.68 70.91 26.11 71.67 26.11C72.42 26.11 72.98 26.68 72.98 27.44C72.98 28.2 72.42 28.77 71.67 28.77ZM67.85 30.36L66.92 24.51H65.21L63.73 27.47L62.27 24.51H60.5L59.61 30.36H61.5L61.92 27.38L63.47 30.39H63.98L65.52 27.39L65.95 30.36H67.85ZM114.26 12.44L111.89 15.03V12.44H109.96V18.29H111.13L113.48 15.66V18.29H115.42V12.44H114.26ZM109.15 12.44H103.5V14.18H105.34V18.29H107.32V14.18H109.15V12.44ZM101.54 12.44L99.18 15.03V12.44H97.24V18.29H98.42L100.77 15.66V18.29H102.7V12.44H101.54ZM96.31 15.37C96.31 13.62 95.04 12.36 93.25 12.26V10.65H91.43V12.26C89.63 12.36 88.37 13.63 88.37 15.37C88.37 17.11 89.62 18.36 91.43 18.46V20.13H93.25V18.46C95.06 18.36 96.31 17.11 96.31 15.37ZM93.14 16.8V13.93C93.88 14 94.39 14.58 94.39 15.37C94.39 16.15 93.89 16.73 93.14 16.8ZM90.29 15.37C90.29 14.59 90.79 14.01 91.52 13.93V16.79C90.79 16.72 90.29 16.15 90.29 15.37ZM87.78 15.37C87.78 13.62 86.51 12.36 84.72 12.26V10.65H82.9V12.26C81.1 12.36 79.84 13.63 79.84 15.37C79.84 17.11 81.09 18.36 82.9 18.46V20.13H84.72V18.46C86.53 18.36 87.78 17.11 87.78 15.37ZM84.61 16.8V13.93C85.35 14 85.86 14.58 85.86 15.37C85.86 16.15 85.36 16.73 84.61 16.8ZM81.76 15.37C81.76 14.59 82.26 14.01 82.99 13.93V16.79C82.26 16.72 81.76 16.15 81.76 15.37ZM77.41 12.43L77.2 12.88C76.72 12.48 76.11 12.25 75.42 12.25C73.63 12.25 72.36 13.54 72.36 15.36C72.36 17.18 73.63 18.48 75.42 18.48C76.1 18.48 76.7 18.26 77.18 17.87L77.35 18.28H78.91V12.43H77.41ZM75.69 16.7C74.94 16.7 74.38 16.13 74.38 15.36C74.38 14.6 74.93 14.03 75.69 14.03C76.44 14.03 77 14.6 77 15.36C77 16.12 76.44 16.7 75.69 16.7ZM68.71 12.24C68.02 12.24 67.4 12.48 66.92 12.9L66.67 12.44H65.3V20.4H67.29V18.1C67.7 18.35 68.18 18.49 68.71 18.49C70.5 18.49 71.77 17.19 71.77 15.36C71.77 13.54 70.5 12.24 68.71 12.24ZM68.44 16.7C67.69 16.7 67.13 16.13 67.13 15.36C67.13 14.59 67.69 14.02 68.44 14.02C69.19 14.02 69.75 14.59 69.75 15.36C69.75 16.13 69.19 16.7 68.44 16.7ZM64.67 10.7H60.06V18.29H62.17V12.59H64.67V10.7ZM25.69 20.97H7.62V23.16H25.69V20.97ZM45.67 34.32H31.84V38.09L40.69 39.58H31.84V45.65H45.67V37.78L36.13 36.23H45.67V34.32ZM31.51 11.43V7.62H40.21H40.85L31.51 11.43ZM45.67 18.95V7.62L44.99 7.89L31.53 13.28L45.67 18.95ZM29.77 34.32H21.41V40.33H29.77V34.32ZM18.94 34.32H7.62V45.65H29.77V42.55H18.94V34.32ZM29.73 7.62H18.15V18.95H29.73V7.62ZM33.76 20.97H27.76V32.3H45.67V25.16H33.76V20.97ZM45.67 20.97H35.86V23.16H45.67V20.97ZM16.46 7.62H7.62V9.81L13.4 11.94H7.62V18.95H16.46V10.75L12.33 9.23H16.46V7.62ZM7.62 24.96V32.3H25.69V24.96H7.62ZM0.54 0H52.75H53.29V0.55V52.73V53.27H52.75H0.54H0V52.73V0.55V0H0.54Z" fill="#1F1B20"/>
</svg>
