<svg width="150" height="62" viewBox="0 0 150 62" fill="none" xmlns="http://www.w3.org/2000/svg">
<path d="M60.7318 1.26863H1.25652V60.7314H60.7318V1.26863ZM29.8889 24.4066H8.86545V26.9555H29.8889V24.4066ZM53.1345 39.9444H37.0441V44.3323L47.3406 46.0665H37.0441V53.1312H53.1345V43.9715L42.0353 42.1674H53.1345V39.9444ZM36.6602 13.3032V8.86878H46.7821H47.5267L36.6602 13.3032ZM53.1345 22.0556V8.86878L52.3434 9.18303L36.6834 15.4564L53.1345 22.0556ZM34.6358 39.9444H24.9094V46.9394H34.6358V39.9444ZM22.0357 39.9444H8.86545V53.1312H34.6358V49.5232H22.0357V39.9444ZM34.5892 8.86878H21.1165V22.0556H34.5892V8.86878ZM39.2779 24.4066H32.2972V37.5934H53.1345V29.2833H39.2779V24.4066ZM53.1345 24.4066H41.7212V26.9555H53.1345V24.4066ZM19.1503 8.86878H8.86545V11.4177L15.5902 13.8968H8.86545V22.0556H19.1503V12.5117L14.3453 10.7426H19.1503V8.86878ZM8.86545 29.0505V37.5934H29.8889V29.0505H8.86545ZM0.62826 0H61.3717H62V0.640135V61.3715V62H61.3717H0.62826H0V61.3715V0.640135V0H0.62826Z" fill="black"/>
<path d="M106.5 50.012C108.578 50.012 110.077 49.0111 110.077 47.0907C110.077 45.0772 108.365 44.6465 107.043 44.309C106.205 44.0995 105.52 43.9366 105.52 43.4361C105.52 43.0287 105.945 42.8425 106.394 42.8425C106.901 42.8425 107.326 43.0986 107.326 43.6572H109.782C109.782 41.8648 108.566 40.7708 106.417 40.7708C104.304 40.7708 103.018 41.7717 103.018 43.5059C103.018 45.5194 104.659 45.9035 105.957 46.2178C106.807 46.4273 107.503 46.5786 107.503 47.1372C107.503 47.6144 107.008 47.8938 106.5 47.8938C105.933 47.8938 105.449 47.5795 105.449 46.951H102.911C102.911 48.8714 104.328 50.012 106.5 50.012ZM99.1694 47.5679V40.9686H96.6786V49.8025H102.345V47.5679H99.1694ZM92.3936 47.5679V40.9686H89.9029V49.8025H95.569V47.5679H92.3936ZM85.6768 49.8025H88.1676V40.9686H85.6768V49.8025ZM84.9804 49.8025L81.8522 45.2517L84.7207 40.9686H81.864L79.5031 44.6931V40.9686H77.0359V49.8025H79.5031V45.9035L82.0646 49.8025H84.9804ZM72.1724 50.012C74.25 50.012 75.7492 49.0111 75.7492 47.0907C75.7492 45.0772 74.0258 44.6465 72.7155 44.309C71.8655 44.0995 71.1927 43.9366 71.1927 43.4361C71.1927 43.0287 71.6176 42.8425 72.0544 42.8425C72.5738 42.8425 72.987 43.0986 72.987 43.6572H75.4541C75.4541 41.8648 74.2264 40.7708 72.0898 40.7708C69.9768 40.7708 68.6783 41.7717 68.6783 43.5059C68.6783 45.5194 70.3309 45.9035 71.6176 46.2178C72.4794 46.4273 73.1758 46.5786 73.1758 47.1372C73.1758 47.6144 72.68 47.8938 72.1724 47.8938C71.6058 47.8938 71.1218 47.5795 71.1218 46.951H68.5721C68.5721 48.8714 69.9886 50.012 72.1724 50.012ZM146.199 28.9341C144.794 28.9341 143.779 29.9001 143.779 31.2386C143.779 32.0882 144.204 32.7749 144.924 33.1357L143.436 35.7428H145.939L147.049 33.5547H147.804V35.7428H150V28.9341H146.199ZM146.836 31.9718C146.352 31.9718 146.081 31.6925 146.081 31.2735C146.081 30.8545 146.352 30.5752 146.836 30.5752H147.804V31.9718H146.836ZM140.733 28.9341L140.485 29.4579C139.919 28.9923 139.199 28.7246 138.384 28.7246C136.271 28.7246 134.772 30.226 134.772 32.3326C134.772 34.4509 136.271 35.9756 138.384 35.9756C139.187 35.9756 139.895 35.7079 140.462 35.254L140.662 35.7428H142.504V28.9341H140.733ZM138.703 33.8922C137.806 33.8922 137.156 33.2288 137.156 32.3443C137.156 31.4597 137.806 30.7963 138.703 30.7963C139.588 30.7963 140.249 31.4597 140.249 32.3443C140.249 33.2288 139.588 33.8922 138.703 33.8922ZM134.866 35.7428L132.505 32.193L134.654 28.9341H131.998L130.345 31.611V28.9341H127.972V35.7428H130.345V32.868L132.08 35.7428H134.866ZM123.262 35.9756C125.198 35.9756 126.674 34.7302 126.945 32.8797H124.608C124.407 33.4849 123.9 33.869 123.262 33.869C122.436 33.869 121.834 33.2288 121.834 32.3443C121.834 31.4481 122.424 30.8196 123.262 30.8196C123.876 30.8196 124.407 31.1804 124.608 31.7391H126.922C126.662 29.935 125.198 28.7246 123.274 28.7246C121.043 28.7246 119.45 30.226 119.45 32.3326C119.45 34.4393 121.055 35.9756 123.262 35.9756ZM115.153 28.713C114.326 28.713 113.595 28.9923 113.028 29.4811L112.733 28.9341H111.116V38.2103H113.465V35.5217C113.949 35.8127 114.527 35.9756 115.153 35.9756C117.254 35.9756 118.765 34.4625 118.765 32.3443C118.765 30.2144 117.254 28.713 115.153 28.713ZM114.834 33.9039C113.937 33.9039 113.288 33.2405 113.288 32.3443C113.288 31.4481 113.937 30.7847 114.834 30.7847C115.719 30.7847 116.38 31.4481 116.38 32.3443C116.38 33.2405 115.719 33.9039 114.834 33.9039ZM110.041 32.2745C110.041 30.2842 108.507 28.713 106.276 28.713C104.115 28.713 102.534 30.2493 102.534 32.3326C102.534 34.416 104.127 35.9756 106.276 35.9756C108.011 35.9756 109.404 34.9979 109.888 33.45H107.527C107.303 33.8457 106.842 34.0901 106.276 34.0901C105.532 34.0901 105.036 33.6827 104.871 32.9029H109.994C110.018 32.6935 110.041 32.484 110.041 32.2745ZM106.276 30.5519C106.996 30.5519 107.492 30.9243 107.704 31.5994H104.918C105.107 30.9243 105.591 30.5519 106.276 30.5519ZM102.121 28.9341H95.451V30.9709H97.623V35.7428H99.9603V30.9709H102.121V28.9341ZM91.402 35.9756C93.3498 35.9756 94.8135 34.7302 95.085 32.8797H92.7477C92.5589 33.4849 92.0395 33.869 91.402 33.869C90.5757 33.869 89.9737 33.2288 89.9737 32.3443C89.9737 31.4481 90.5757 30.8196 91.402 30.8196C92.0277 30.8196 92.5471 31.1804 92.7477 31.7391H95.0614C94.8017 29.935 93.3498 28.7246 91.4138 28.7246C89.1828 28.7246 87.601 30.226 87.601 32.3326C87.601 34.4393 89.1946 35.9756 91.402 35.9756ZM84.7325 28.9341L84.4846 29.4579C83.918 28.9923 83.1979 28.7246 82.3834 28.7246C80.2704 28.7246 78.7712 30.226 78.7712 32.3326C78.7712 34.4509 80.2704 35.9756 82.3834 35.9756C83.1861 35.9756 83.8943 35.7079 84.461 35.254L84.6616 35.7428H86.5031V28.9341H84.7325ZM82.7021 33.8922C81.8049 33.8922 81.1557 33.2288 81.1557 32.3443C81.1557 31.4597 81.8049 30.7963 82.7021 30.7963C83.5874 30.7963 84.2485 31.4597 84.2485 32.3443C84.2485 33.2288 83.5874 33.8922 82.7021 33.8922ZM78.1928 35.7428L77.0949 28.9341H75.0764L73.3293 32.3792L71.6058 28.9341H69.5164L68.4658 35.7428H70.6969L71.1927 32.2745L73.0224 35.7777H73.6244L75.4423 32.2861L75.9499 35.7428H78.1928ZM132.978 14.8861L130.18 17.9005V14.8861H127.902V21.6948H129.283L132.057 18.6338V21.6948H134.347V14.8861H132.978ZM126.945 14.8861H120.276V16.9112H122.448V21.6948H124.785V16.9112H126.945V14.8861ZM117.962 14.8861L115.176 17.9005V14.8861H112.886V21.6948H114.279L117.053 18.6338V21.6948H119.332V14.8861H117.962ZM111.788 18.2962C111.788 16.2594 110.289 14.7929 108.176 14.6766V12.8027H106.028V14.6766C103.903 14.7929 102.416 16.2711 102.416 18.2962C102.416 20.3214 103.891 21.7762 106.028 21.8926V23.8363H108.176V21.8926C110.313 21.7762 111.788 20.3214 111.788 18.2962ZM108.046 19.9606V16.6202C108.92 16.7017 109.522 17.3768 109.522 18.2962C109.522 19.2041 108.932 19.8791 108.046 19.9606ZM104.682 18.2962C104.682 17.3884 105.272 16.7133 106.134 16.6202V19.9489C105.272 19.8675 104.682 19.2041 104.682 18.2962ZM101.719 18.2962C101.719 16.2594 100.22 14.7929 98.107 14.6766V12.8027H95.9586V14.6766C93.8338 14.7929 92.3464 16.2711 92.3464 18.2962C92.3464 20.3214 93.822 21.7762 95.9586 21.8926V23.8363H98.107V21.8926C100.244 21.7762 101.719 20.3214 101.719 18.2962ZM97.9771 19.9606V16.6202C98.8507 16.7017 99.4527 17.3768 99.4527 18.2962C99.4527 19.2041 98.8625 19.8791 97.9771 19.9606ZM94.6128 18.2962C94.6128 17.3884 95.2031 16.7133 96.0648 16.6202V19.9489C95.2031 19.8675 94.6128 19.2041 94.6128 18.2962ZM89.4779 14.8744L89.23 15.3982C88.6634 14.9326 87.9433 14.6649 87.1288 14.6649C85.0158 14.6649 83.5166 16.1663 83.5166 18.2846C83.5166 20.4029 85.0158 21.9159 87.1288 21.9159C87.9315 21.9159 88.6398 21.6598 89.2064 21.2059L89.4071 21.6831H91.2486V14.8744H89.4779ZM87.4475 19.8442C86.5622 19.8442 85.9011 19.1808 85.9011 18.2846C85.9011 17.4 86.5504 16.7366 87.4475 16.7366C88.3328 16.7366 88.9939 17.4 88.9939 18.2846C88.9939 19.1691 88.3328 19.8442 87.4475 19.8442ZM79.2079 14.6533C78.3934 14.6533 77.6615 14.9326 77.0949 15.4214L76.7998 14.8861H75.1826V24.1506H77.5317V21.4736C78.0157 21.7646 78.5823 21.9275 79.2079 21.9275C81.321 21.9275 82.8201 20.4145 82.8201 18.2846C82.8201 16.1663 81.321 14.6533 79.2079 14.6533ZM78.8892 19.8442C78.0039 19.8442 77.3428 19.1808 77.3428 18.2846C77.3428 17.3884 78.0039 16.725 78.8892 16.725C79.7746 16.725 80.4356 17.3884 80.4356 18.2846C80.4356 19.1808 79.7746 19.8442 78.8892 19.8442ZM74.4389 12.8609H68.997V21.6948H71.4878V15.0606H74.4389V12.8609Z" fill="white"/>
</svg>
