<svg width="16" height="17" viewBox="0 0 16 17" fill="none" xmlns="http://www.w3.org/2000/svg">
<path d="M5.02734 5.40236C5.82422 4.60548 6.78516 4.20705 7.91016 4.20705C9.03516 4.20705 9.98438 4.60548 10.7578 5.40236C11.5547 6.1758 11.9531 7.12502 11.9531 8.25002C11.9531 9.37502 11.5547 10.336 10.7578 11.1328C9.98438 11.9063 9.03516 12.293 7.91016 12.293C6.78516 12.293 5.82422 11.9063 5.02734 11.1328C4.25391 10.336 3.86719 9.37502 3.86719 8.25002C3.86719 7.12502 4.25391 6.1758 5.02734 5.40236ZM6.04688 10.1133C6.5625 10.6289 7.18359 10.8867 7.91016 10.8867C8.63672 10.8867 9.25781 10.6289 9.77344 10.1133C10.2891 9.59767 10.5469 8.97658 10.5469 8.25002C10.5469 7.52345 10.2891 6.90236 9.77344 6.38673C9.25781 5.87111 8.63672 5.6133 7.91016 5.6133C7.18359 5.6133 6.5625 5.87111 6.04688 6.38673C5.53125 6.90236 5.27344 7.52345 5.27344 8.25002C5.27344 8.97658 5.53125 9.59767 6.04688 10.1133ZM12.7617 3.39845C12.9492 3.56252 13.043 3.77345 13.043 4.03127C13.043 4.28908 12.9492 4.51173 12.7617 4.69923C12.5977 4.88673 12.3867 4.98048 12.1289 4.98048C11.8711 4.98048 11.6484 4.88673 11.4609 4.69923C11.2734 4.51173 11.1797 4.28908 11.1797 4.03127C11.1797 3.77345 11.2734 3.56252 11.4609 3.39845C11.6484 3.21095 11.8711 3.1172 12.1289 3.1172C12.3867 3.1172 12.5977 3.21095 12.7617 3.39845ZM15.75 5.01564C15.7734 5.64845 15.7852 6.72658 15.7852 8.25002C15.7852 9.77345 15.7734 10.8516 15.75 11.4844C15.6797 12.9141 15.2461 14.0274 14.4492 14.8242C13.6758 15.5977 12.5742 16.0078 11.1445 16.0547C10.5117 16.1016 9.43359 16.125 7.91016 16.125C6.38672 16.125 5.30859 16.1016 4.67578 16.0547C3.24609 15.9844 2.14453 15.5625 1.37109 14.7891C1.06641 14.5078 0.820313 14.1797 0.632813 13.8047C0.445313 13.4297 0.304688 13.0664 0.210938 12.7149C0.140625 12.3633 0.105469 11.9531 0.105469 11.4844C0.0585938 10.8516 0.0351563 9.77345 0.0351563 8.25002C0.0351563 6.72658 0.0585938 5.63673 0.105469 4.98048C0.175781 3.57423 0.597656 2.48439 1.37109 1.71095C2.14453 0.914078 3.24609 0.480484 4.67578 0.410172C5.30859 0.386734 6.38672 0.375015 7.91016 0.375015C9.43359 0.375015 10.5117 0.386734 11.1445 0.410172C12.5742 0.480484 13.6758 0.914078 14.4492 1.71095C15.2461 2.48439 15.6797 3.58595 15.75 5.01564ZM14.0625 12.8906C14.1328 12.7031 14.1914 12.4688 14.2383 12.1875C14.2852 11.8828 14.3203 11.5313 14.3438 11.1328C14.3672 10.711 14.3789 10.3711 14.3789 10.1133C14.3789 9.85548 14.3789 9.4922 14.3789 9.02345C14.3789 8.5547 14.3789 8.29689 14.3789 8.25002C14.3789 8.1797 14.3789 7.92189 14.3789 7.47658C14.3789 7.00783 14.3789 6.64455 14.3789 6.38673C14.3789 6.12892 14.3672 5.8008 14.3438 5.40236C14.3203 4.98048 14.2852 4.62892 14.2383 4.34767C14.1914 4.04298 14.1328 3.79689 14.0625 3.60939C13.7813 2.88283 13.2773 2.37892 12.5508 2.09767C12.3633 2.02736 12.1172 1.96877 11.8125 1.92189C11.5313 1.87502 11.1797 1.83986 10.7578 1.81642C10.3594 1.79298 10.0313 1.78127 9.77344 1.78127C9.53906 1.78127 9.17578 1.78127 8.68359 1.78127C8.21484 1.78127 7.95703 1.78127 7.91016 1.78127C7.86328 1.78127 7.60547 1.78127 7.13672 1.78127C6.66797 1.78127 6.30469 1.78127 6.04688 1.78127C5.78906 1.78127 5.44922 1.79298 5.02734 1.81642C4.62891 1.83986 4.27734 1.87502 3.97266 1.92189C3.69141 1.96877 3.45703 2.02736 3.26953 2.09767C2.54297 2.37892 2.03906 2.88283 1.75781 3.60939C1.6875 3.79689 1.62891 4.04298 1.58203 4.34767C1.53516 4.62892 1.5 4.98048 1.47656 5.40236C1.45313 5.8008 1.44141 6.12892 1.44141 6.38673C1.44141 6.62111 1.44141 6.98439 1.44141 7.47658C1.44141 7.94533 1.44141 8.20314 1.44141 8.25002C1.44141 8.34377 1.44141 8.56642 1.44141 8.91798C1.44141 9.24611 1.44141 9.52736 1.44141 9.76173C1.44141 9.97267 1.44141 10.2539 1.44141 10.6055C1.46484 10.957 1.48828 11.2617 1.51172 11.5195C1.53516 11.7539 1.57031 12 1.61719 12.2578C1.66406 12.5156 1.71094 12.7266 1.75781 12.8906C2.0625 13.6172 2.56641 14.1211 3.26953 14.4024C3.45703 14.4727 3.69141 14.5313 3.97266 14.5781C4.27734 14.625 4.62891 14.6602 5.02734 14.6836C5.44922 14.707 5.77734 14.7188 6.01172 14.7188C6.26953 14.7188 6.63281 14.7188 7.10156 14.7188C7.59375 14.7188 7.86328 14.7188 7.91016 14.7188C7.98047 14.7188 8.23828 14.7188 8.68359 14.7188C9.15234 14.7188 9.51563 14.7188 9.77344 14.7188C10.0313 14.7188 10.3594 14.707 10.7578 14.6836C11.1797 14.6602 11.5313 14.625 11.8125 14.5781C12.1172 14.5313 12.3633 14.4727 12.5508 14.4024C13.2773 14.0977 13.7813 13.5938 14.0625 12.8906Z" fill="white"/>
</svg>
