<svg width="16" height="14" viewBox="0 0 16 14" fill="none" xmlns="http://www.w3.org/2000/svg">
<path d="M15.75 1.7305L13.3594 12.9102C13.1719 13.7071 12.7383 13.918 12.0586 13.543L8.4375 10.8711L6.67969 12.5586C6.44531 12.793 6.19922 12.9102 5.94141 12.9102L6.22266 9.21878L12.9375 3.17191C13.1016 3.00784 13.1016 2.91409 12.9375 2.89066C12.7969 2.84378 12.6445 2.87894 12.4805 2.99612L4.18359 8.23441L0.597656 7.10941C0.199219 6.99222 0.0117188 6.81644 0.0351563 6.58206C0.0585938 6.34769 0.304688 6.14847 0.773438 5.98441L14.7305 0.570343C15.082 0.453156 15.3633 0.500031 15.5742 0.710968C15.7852 0.898468 15.8438 1.23831 15.75 1.7305Z" fill="white"/>
</svg>
