<svg width="20" height="12" viewBox="0 0 20 12" fill="none" xmlns="http://www.w3.org/2000/svg">
<path d="M19.1602 1.39856C19.2656 0.976685 19.1602 0.625122 18.5273 0.625122H16.4531C15.9258 0.625122 15.6797 0.906372 15.5391 1.22278C15.5391 1.22278 14.4844 3.78918 13.0078 5.47668C12.5156 5.93372 12.3047 6.1095 12.0234 6.1095C11.918 6.1095 11.707 5.93372 11.707 5.51184V1.39856C11.707 0.871216 11.5664 0.625122 11.1094 0.625122L7.875 0.625122C7.52344 0.625122 7.34766 0.871216 7.34766 1.11731C7.34766 1.6095 8.08594 1.71497 8.15625 3.12122V6.17981C8.15625 6.84778 8.05078 6.9884 7.76953 6.9884C7.06641 6.9884 5.37891 4.38684 4.35938 1.43372C4.14844 0.871216 3.9375 0.625122 3.41016 0.625122L1.33594 0.625122C0.773438 0.625122 0.632813 0.906372 0.632813 1.22278C0.632813 1.78528 1.33594 4.49231 3.90234 8.1134C5.625 10.5743 8.05078 11.8751 10.2305 11.8751C11.5313 11.8751 11.707 11.5939 11.707 11.1017C11.707 8.74622 11.6016 8.50012 12.2344 8.50012C12.5508 8.50012 13.0781 8.6759 14.3086 9.87122C15.7148 11.2775 15.9609 11.8751 16.7344 11.8751H18.8086C19.4063 11.8751 19.6875 11.5939 19.5117 10.9962C19.125 9.8009 16.4883 7.26965 16.3477 7.09387C16.0313 6.70715 16.1367 6.53137 16.3477 6.17981C16.3477 6.17981 18.8789 2.59387 19.1602 1.39856Z" fill="white"/>
</svg>
