<svg width="16" height="17" viewBox="0 0 16 17" fill="none" xmlns="http://www.w3.org/2000/svg">
<path d="M13.3945 2.66016C14.9648 4.23047 15.75 6.07031 15.75 8.17969C15.75 10.3359 14.9766 12.1758 13.4297 13.6992C11.8828 15.2227 10.0313 15.9844 7.875 15.9844C6.53906 15.9844 5.29688 15.668 4.14844 15.0352L0 16.125L1.125 12.082C0.421875 10.8867 0.0703125 9.58594 0.0703125 8.17969C0.0703125 6.02344 0.832031 4.18359 2.35547 2.66016C3.87891 1.13672 5.71875 0.375 7.875 0.375C10.0312 0.375 11.8711 1.13672 13.3945 2.66016ZM7.875 14.6836C9.65625 14.6836 11.1914 14.0508 12.4805 12.7852C13.7695 11.4961 14.4141 9.96094 14.4141 8.17969C14.4375 6.44531 13.7813 4.92187 12.4453 3.60937C11.1797 2.34375 9.65625 1.71094 7.875 1.71094C6.09375 1.71094 4.55859 2.34375 3.26953 3.60938C2.00391 4.875 1.37109 6.39844 1.37109 8.17969C1.37109 9.42188 1.71094 10.5703 2.39063 11.625L2.53125 11.8711L1.86328 14.2617L4.32422 13.6289L4.57031 13.7695C5.57813 14.3789 6.67969 14.6836 7.875 14.6836ZM11.4258 9.79687C11.6602 9.91406 11.7891 9.99609 11.8125 10.043C11.8828 10.1836 11.8359 10.5 11.6719 10.9922C11.6016 11.1797 11.4141 11.3789 11.1094 11.5898C10.8281 11.7773 10.582 11.8828 10.3711 11.9062C9.76172 12 8.97656 11.8359 8.01563 11.4141C6.86719 10.9219 5.76563 9.9375 4.71094 8.46094C4.17188 7.73438 3.90234 7.06641 3.90234 6.45703C3.90234 5.87109 4.125 5.32031 4.57031 4.80469C4.73438 4.66406 4.91016 4.59375 5.09766 4.59375C5.28516 4.59375 5.41406 4.59375 5.48438 4.59375C5.69531 4.59375 5.83594 4.69922 5.90625 4.91016C6.30469 5.87109 6.50391 6.35156 6.50391 6.35156C6.57422 6.49219 6.58594 6.60937 6.53906 6.70312C6.44531 6.91406 6.32813 7.10156 6.1875 7.26562C6.04688 7.40625 5.96484 7.48828 5.94141 7.51172C5.91797 7.53516 5.92969 7.61719 5.97656 7.75781C6.30469 8.36719 6.65625 8.82422 7.03125 9.12891C7.42969 9.43359 7.95703 9.75 8.61328 10.0781C8.80078 10.1719 8.94141 10.1602 9.03516 10.043C9.33984 9.69141 9.55078 9.43359 9.66797 9.26953C9.76172 9.12891 9.90234 9.09375 10.0898 9.16406C10.2773 9.23437 10.7227 9.44531 11.4258 9.79687Z" fill="white"/>
</svg>
